<svg width="20" height="20" viewBox="0 0 20 20" fill="none" xmlns="http://www.w3.org/2000/svg">
<path d="M18.7207 3.12109L16.7168 1.11719C15.752 0.152344 14.1562 0.152344 13.1914 1.11719L1.39062 12.8438L0.5 18.373C0.388672 18.9668 0.908203 19.4863 1.50195 19.375L7.03125 18.4844L18.7578 6.68359C19.7227 5.71875 19.7227 4.12305 18.7207 3.12109ZM4.95312 11.582L11.2617 5.31055L14.5645 8.61328L8.29297 14.9219V13.3633H6.51172V11.582H4.95312ZM3.54297 17.4082L2.4668 16.332L2.94922 13.623L3.61719 12.918H5.17578V14.6992H6.95703V16.2578L6.25195 16.9258L3.54297 17.4082ZM17.6074 5.5332L15.7891 7.35156L12.5234 4.08594L14.3418 2.26758C14.6758 1.93359 15.2324 1.93359 15.5664 2.26758L17.5703 4.27148C17.9414 4.64258 17.9414 5.19922 17.6074 5.5332Z" fill="white"/>
</svg>
