<svg width="18" height="21" viewBox="0 0 18 21" fill="none" xmlns="http://www.w3.org/2000/svg">
<path d="M17.125 3.625H13.8828L12.5547 1.4375C12.2422 0.890625 11.6172 0.5 10.9531 0.5H7.00781C6.34375 0.5 5.71875 0.890625 5.40625 1.4375L4.07812 3.625H0.875C0.523438 3.625 0.25 3.9375 0.25 4.25V4.875C0.25 5.22656 0.523438 5.5 0.875 5.5H1.5L2.32031 18.7422C2.35938 19.7578 3.17969 20.5 4.19531 20.5H13.7656C14.7812 20.5 15.6016 19.7578 15.6406 18.7422L16.5 5.5H17.125C17.4375 5.5 17.75 5.22656 17.75 4.875V4.25C17.75 3.9375 17.4375 3.625 17.125 3.625ZM7.00781 2.375H10.9531L11.6953 3.625H6.26562L7.00781 2.375ZM13.7656 18.625H4.19531L3.375 5.5H14.5859L13.7656 18.625Z" fill="white"/>
</svg>
